<?xml version="1.0" standalone="no"?>
<!DOCTYPE svg PUBLIC "-//W3C//DTD SVG 20010904//EN"
 "http://www.w3.org/TR/2001/REC-SVG-20010904/DTD/svg10.dtd">
<svg version="1.0" xmlns="http://www.w3.org/2000/svg"
 width="150.000000pt" height="150.000000pt" viewBox="0 0 150.000000 150.000000"
 preserveAspectRatio="xMidYMid meet">
<metadata>
Created by potrace 1.14, written by Peter Selinger 2001-2017
</metadata>
<g transform="translate(0.000000,150.000000) scale(0.100000,-0.100000)"
fill="#000000" stroke="none">
<path d="M1390 1226 c-41 -18 -174 -81 -294 -140 l-219 -106 -33 21 c-19 11
-43 32 -54 46 -20 26 -21 26 -58 10 -36 -16 -108 -37 -125 -37 -5 0 -39 29
-75 63 -67 64 -110 97 -124 97 -21 0 12 -123 57 -209 13 -26 12 -30 -26 -74
-23 -26 -46 -47 -54 -47 -7 0 -18 -7 -25 -15 -10 -12 -8 -23 9 -58 36 -74 32
-84 -74 -170 -148 -121 -266 -229 -281 -259 -14 -28 -14 -28 18 -28 19 0 127
40 252 94 l219 94 41 -30 c22 -16 49 -43 60 -59 l18 -30 37 22 c20 12 61 30
91 40 l55 18 100 -98 c190 -186 204 -178 95 58 l-61 132 31 37 c18 20 46 49
63 64 l32 26 -21 29 c-12 16 -25 47 -28 69 -7 39 -6 42 41 79 26 22 50 42 53
45 3 3 72 59 155 125 218 175 267 226 218 225 -10 0 -52 -16 -93 -34z"/>
</g>
</svg>
