<?xml version="1.0" encoding="utf-8"?>
<!-- Generator: Adobe Illustrator 16.0.0, SVG Export Plug-In . SVG Version: 6.00 Build 0)  -->
<!DOCTYPE svg PUBLIC "-//W3C//DTD SVG 1.1//EN" "http://www.w3.org/Graphics/SVG/1.1/DTD/svg11.dtd">
<svg version="1.1" id="Layer_1" xmlns="http://www.w3.org/2000/svg" xmlns:xlink="http://www.w3.org/1999/xlink" x="0px" y="0px"
	 width="1619.993px" height="1080px" viewBox="0 0 1619.993 1080" enable-background="new 0 0 1619.993 1080" xml:space="preserve">
<g>
	<g id="XMLID_5371_">
		<polygon id="XMLID_11651_" fill="#273374" points="0,719.675 0,959.771 359.771,719.675 		"/>
		<polygon id="XMLID_11650_" fill="#273374" points="675.187,0 181.806,0 675.187,329.323 		"/>
		<polygon id="XMLID_11649_" fill="#273374" points="0,120.17 0,360.266 359.771,360.266 		"/>
		<polygon id="XMLID_11648_" fill="#273374" points="1619.993,360.266 1619.993,120.17 1260.156,360.266 		"/>
		<polygon id="XMLID_11647_" fill="#273374" points="1438.121,0 944.754,0 944.754,329.323 		"/>
		<polygon id="XMLID_11646_" fill="#273374" points="1619.993,959.771 1619.993,719.675 1260.156,719.675 		"/>
		<polygon id="XMLID_11645_" fill="#273374" points="181.806,1080 675.187,1080 675.187,750.678 		"/>
		<polygon id="XMLID_11232_" fill="#273374" points="944.754,1080 1438.121,1080 944.754,750.678 		"/>
		<polygon id="XMLID_11231_" fill="#FFFFFF" points="1078.535,719.675 1199.378,719.675 1619.993,1000.291 1619.993,959.771 
			1260.156,719.675 1619.993,719.675 1619.993,360.266 1260.156,360.266 1619.993,120.17 1619.993,0 1619.017,0 1079.261,360.266 
			958.18,360.266 1498.173,0 1438.121,0 944.754,329.323 944.754,0 675.187,0 675.187,329.323 181.806,0 0.858,0 540.667,360.266 
			419.705,360.266 0,80.197 0,120.17 359.771,360.266 0,360.266 0,719.675 359.771,719.675 0,959.771 0,1080 0.119,1080 
			539.94,719.675 660.903,719.675 121.081,1080 181.806,1080 675.187,750.678 675.187,1080 944.754,1080 944.754,750.678 
			1438.121,1080 1618.29,1080 		"/>
		<polygon id="XMLID_5754_" fill="#CE202B" points="0,80.197 419.705,360.266 540.667,360.266 0.858,0 0,0 		"/>
		<polygon id="XMLID_5753_" fill="#CE202B" points="1078.535,719.675 1618.29,1080 1619.993,1080 1619.993,1000.291 
			1199.378,719.675 		"/>
		<polygon id="XMLID_5735_" fill="#CE202B" points="958.18,360.266 1079.261,360.266 1619.017,0 1498.173,0 		"/>
		<polygon id="XMLID_5734_" fill="#CE202B" points="660.903,719.675 539.94,719.675 0.119,1080 121.081,1080 		"/>
		<polygon id="XMLID_5372_" fill="#CE202B" points="1619.993,431.975 890.92,431.975 890.92,0 728.955,0 728.955,431.975 0,431.975 
			0,647.966 728.955,647.966 728.955,1080 890.92,1080 890.92,647.966 1619.993,647.966 		"/>
	</g>
</g>
</svg>
