<?xml version="1.0" encoding="utf-8"?>
<!-- Generator: Adobe Illustrator 16.0.0, SVG Export Plug-In . SVG Version: 6.00 Build 0)  -->
<!DOCTYPE svg PUBLIC "-//W3C//DTD SVG 1.1//EN" "http://www.w3.org/Graphics/SVG/1.1/DTD/svg11.dtd">
<svg version="1.1" id="Layer_1" xmlns="http://www.w3.org/2000/svg" xmlns:xlink="http://www.w3.org/1999/xlink" x="0px" y="0px"
	 width="595.28px" height="595.28px" viewBox="0 0 595.28 595.28" enable-background="new 0 0 595.28 595.28" xml:space="preserve">
<path fill="#FFFFFF" d="M43.706,257.527c0-2.154,0.026-4.248,0.08-6.283c0.01-0.422,0.027-0.841,0.041-1.261
	c0.03-0.952,0.067-1.89,0.107-2.814C49.371,111.73,160.867,3.593,297.641,3.593c140.244,0,253.934,113.691,253.934,253.935
	c0,103.079-61.418,191.812-149.653,231.602c0,35.927,0,81.86,0,90.49c0,13.042-15.053,24.081-97.332-15.052
	C227.877,528.08,73.536,486.354,47.317,300.332C44.956,286.416,43.706,272.117,43.706,257.527z"/>
<g>
	<path fill="#0E1826" d="M131.514,288.684v-50.017c0-3.4-0.089-7.008-0.265-10.82c-0.175-3.809-0.495-8.029-0.96-12.658
		c3.094,0.683,6.185,1.021,9.279,1.021l9.707-1.021l-0.204,17.149c4.191-5.987,9.161-10.75,14.909-14.291
		c5.748-3.538,12.205-5.308,19.375-5.308c7.573,0,14.434,2.348,20.587,7.043c6.153,4.695,9.231,10.718,9.231,18.067v29.806v23.886
		l1.021,20.007c-1.633-0.134-3.199-0.306-4.695-0.51c-1.5-0.204-3.267-0.307-5.308-0.307c-1.633,0-3.438,0.103-5.41,0.307
		c-1.974,0.204-3.505,0.376-4.593,0.51c0-7.892,0.236-18.813,0.714-32.766c0.476-13.949,0.715-22.967,0.715-27.05
		c0-7.757-1.662-14.118-4.979-19.088c-3.321-4.967-8.775-7.452-16.364-7.452c-9.892,0-16.565,3.847-20.02,11.535
		c-3.458,7.691-5.184,17.251-5.184,28.683c0,5.445,0.102,14.326,0.306,26.642c0.204,12.32,0.306,18.818,0.306,19.497
		c-1.362,0-3.234-0.169-5.614-0.51c-2.383-0.338-3.776-0.511-4.185-0.511c-1.362,0-3.234,0.173-5.614,0.511
		c-2.383,0.341-3.777,0.51-4.185,0.51L131.514,288.684z"/>
	<path fill="#0E1826" d="M287.485,305.425c11.433,0,21.028-4.287,28.785-12.862l2.45,0.613c-0.408,2.042-0.75,3.981-1.021,5.818
		c-0.274,1.837-0.408,3.847-0.408,6.022c-4.628,2.995-10.074,5.206-16.332,6.635c-6.262,1.429-12.523,2.144-18.782,2.144
		c-14.699,0-26.438-4.319-35.216-12.964c-8.778-8.642-13.167-20.313-13.167-35.012c0-14.153,4.252-26.54,12.759-37.155
		c8.504-10.616,19.701-15.924,33.583-15.924c12.383,0,22.559,3.914,30.521,11.739c7.962,7.828,11.942,18,11.942,30.521l-0.204,7.962
		l-48.588-0.612l-19.802,0.612c0,11.783,2.756,21.809,8.268,30.071C267.784,301.294,276.187,305.425,287.485,305.425z
		 M302.997,253.979l0.208-6.533c0-7.212-2.096-13.474-6.281-18.782s-9.777-7.962-16.775-7.962c-8.648,0-14.858,3.165-18.632,9.493
		c-3.773,6.329-6.277,14.393-7.512,24.192L302.997,253.979z"/>
	<path fill="#0E1826" d="M328.313,215.343c3.675,0.574,6.191,0.896,7.554,0.966c1.359,0.07,2.858,0.105,4.491,0.105
		c3.4,0,7.279-0.338,11.637-1.021c1.088,6.54,2.313,12.122,3.675,16.753c1.359,4.632,3.742,11.78,7.145,21.449l13.27,37.181
		c8.845-23.969,17.148-49.098,24.906-75.383c2.721,0.683,5.308,1.021,7.758,1.021c2.584,0,5.442-0.338,8.574-1.021
		c1.088,5.174,2.45,10.549,4.083,16.128c1.633,5.583,3.605,11.637,5.92,18.169l13.679,41.902l14.902-40.859
		c2.042-5.716,3.981-11.538,5.818-17.465c1.838-5.923,3.436-11.882,4.798-17.876c2.584,0.546,4.319,0.852,5.206,0.919
		c0.883,0.07,1.869,0.102,2.96,0.102c2.175,0,4.763-0.338,7.758-1.021c-4.896,9.668-9.385,19.302-13.465,28.903
		c-4.079,9.602-8.466,20.495-13.154,32.68c-4.692,12.188-9.079,23.73-13.158,34.624c-0.951,0-2.278-0.179-3.979-0.536
		s-2.753-0.536-3.161-0.536c-0.95,0-2.21,0.179-3.773,0.536c-1.563,0.357-2.619,0.536-3.161,0.536
		c-1.904-7.092-3.706-13.366-5.406-18.82c-1.701-5.455-3.57-10.91-5.608-16.365l-13.758-37.538
		c-4.216,10.896-8.401,22.438-12.551,34.626s-8.265,24.888-12.345,38.097c-1.225-0.144-2.383-0.326-3.471-0.543
		c-1.091-0.217-2.45-0.325-4.083-0.325c-1.225,0-2.584,0.108-4.08,0.325c-1.499,0.217-2.654,0.399-3.47,0.543
		c-4.491-13.761-8.571-25.717-12.246-35.868c-3.675-10.15-7.417-20.096-11.225-29.838
		C336.542,236.153,332.53,225.971,328.313,215.343z"/>
</g>
</svg>
