<?xml version="1.0" encoding="utf-8"?>
<!-- Generator: Adobe Illustrator 16.0.0, SVG Export Plug-In . SVG Version: 6.00 Build 0)  -->
<!DOCTYPE svg PUBLIC "-//W3C//DTD SVG 1.1//EN" "http://www.w3.org/Graphics/SVG/1.1/DTD/svg11.dtd">
<svg version="1.1" id="Layer_1" xmlns:svgjs="http://svgjs.com/svgjs"
	 xmlns="http://www.w3.org/2000/svg" xmlns:xlink="http://www.w3.org/1999/xlink" x="0px" y="0px" width="512px" height="512px"
	 viewBox="0 0 512 512" enable-background="new 0 0 512 512" xml:space="preserve">
<g>
	<path fill="#FFFFFF" d="M394.573,280.181V147.933c-0.012-10.405-8.443-18.837-18.849-18.848H111.857
		c-10.405,0.01-18.838,8.442-18.848,18.848v194.76c0.01,10.404,8.442,18.837,18.848,18.848h208.524
		c6.938,37.518,42.975,62.308,80.492,55.371s62.308-42.975,55.371-80.492C450.615,305.969,425.409,282.986,394.573,280.181z
		 M111.857,141.65h263.867c3.469,0.003,6.279,2.814,6.283,6.283v132.248c-10.805,0.987-21.22,4.525-30.39,10.322l-48.274-53.057
		c-2.232-2.791-5.548-4.5-9.116-4.699c-3.575-0.232-7.072,1.105-9.581,3.663l-34.561,34.554l-34.051-44.531
		c-4.034-5.646-11.882-6.954-17.529-2.92c-0.941,0.672-1.785,1.471-2.507,2.374l-90.424,113.036v-190.99
		C105.577,144.464,108.388,141.653,111.857,141.65z M293.906,348.975H113.628l92.304-115.071L293.906,348.975z M319.181,348.975
		h-9.461l-51.913-67.915l35.98-35.465l47.816,52.573C327.328,311.205,319.192,329.643,319.181,348.975z M424.602,346.612
		c-2.166,2.709-6.117,3.15-8.826,0.986l-21.203-16.97v49.759c0,3.469-2.813,6.282-6.283,6.282c-3.471,0-6.282-2.813-6.282-6.282
		v-49.759l-21.21,16.964c-2.62,2.274-6.588,1.995-8.863-0.624c-2.275-2.62-1.996-6.588,0.623-8.863
		c0.127-0.11,0.258-0.214,0.394-0.314l31.412-25.13c2.296-1.838,5.558-1.838,7.854,0l31.413,25.13
		c2.702,2.168,3.141,6.113,0.979,8.821H424.602z M325.464,217.041c17.348,0,31.412-14.064,31.412-31.413
		s-14.064-31.413-31.412-31.413c-17.35,0-31.413,14.064-31.413,31.413C294.072,202.968,308.123,217.02,325.464,217.041z
		 M325.464,166.78c10.409,0,18.848,8.438,18.848,18.848s-8.438,18.848-18.848,18.848s-18.848-8.438-18.848-18.848
		C306.626,175.223,315.058,166.791,325.464,166.78z"/>
</g>
</svg>
